<?xml version="1.0" standalone="no"?><!DOCTYPE svg PUBLIC "-//W3C//DTD SVG 1.1//EN" "http://www.w3.org/Graphics/SVG/1.1/DTD/svg11.dtd"><svg t="1656300555124" class="icon" viewBox="0 0 1025 1024" version="1.1" xmlns="http://www.w3.org/2000/svg" p-id="6335" xmlns:xlink="http://www.w3.org/1999/xlink" width="64.0625" height="64"><defs><style type="text/css">@font-face { font-family: feedback-iconfont; src: url("//at.alicdn.com/t/font_1031158_u69w8yhxdu.woff2?t=1630033759944") format("woff2"), url("//at.alicdn.com/t/font_1031158_u69w8yhxdu.woff?t=1630033759944") format("woff"), url("//at.alicdn.com/t/font_1031158_u69w8yhxdu.ttf?t=1630033759944") format("truetype"); }
</style></defs><path d="M853.538 878.913c0 34.322-27.847 62.17-62.169 62.17H128.231c-34.363 0-62.169-27.848-62.169-62.17V215.775c0-34.343 27.806-62.169 62.169-62.169h371.275V91.437H107.508c-57.231 0-103.615 46.384-103.615 103.616v704.583c0 57.212 46.384 103.616 103.615 103.616h704.584c57.23 0 103.614-46.404 103.614-103.616V529.961h-62.169v348.952z" p-id="6336"></path><path d="M1016.125 160.386L869.587 13.847c-12.143-12.122-31.813-12.143-43.956 0l-468.899 468.9c-2.064 2.044-3.623 4.351-4.979 6.779a25.96 25.96 0 0 0-2.186 4.614 30.518 30.518 0 0 0-1.639 7.428c-0.021 0.424-0.284 0.748-0.265 1.173v1.559c-0.02 0.283-0.02 0.566 0 0.891l-0.02 148.279c0.02 6.9 3.057 12.951 7.528 17.869 0.466 0.546 0.789 1.194 1.295 1.72 0.507 0.466 1.134 0.79 1.66 1.234 4.897 4.514 10.989 7.569 17.91 7.569l143.786-0.041c9.652 1.7 19.934-1.133 27.381-8.58l468.899-468.899h0.021c12.145-12.143 12.124-31.814 0.002-43.956zM512.862 619.692H409.813V517.575L847.608 79.78l102.563 102.583-437.309 437.329z" p-id="6337"></path></svg>